<svg width="32" height="32" viewBox="0 0 32 32" fill="none" xmlns="http://www.w3.org/2000/svg">
  <rect width="32" height="32" rx="8" fill="#4f46e5"/>
  <path d="M8 12C8 10.8954 8.89543 10 10 10H14C15.5228 10 20 14.4772 20 20C20 21.1046 19.1046 22 18 22H10C8.89543 22 8 21.1046 8 20V12Z" fill="white"/>
  <circle cx="13" cy="16" r="2" fill="#4f46e5"/>
  <path d="M22 8C22 6.89543 21.1046 6 20 6H16C10.4772 6 6 10.4772 6 16C6 17.1046 6.89543 18 8 18H20C21.1046 18 22 17.1046 22 16V8Z" fill="white" opacity="0.9"/>
  <circle cx="15" cy="12" r="2" fill="#4f46e5"/>
</svg>  <rect width="32" height="32" rx="8" fill="#4f46e5"/>
  <path d="M8 12C8 10.8954 8.89543 10 10 10H14C15.5228 10 20 14.4772 20 20C20 21.1046 19.1046 22 18 22H10C8.89543 22 8 21.1046 8 20V12Z" fill="white"/>
  <circle cx="13" cy="16" r="2" fill="#4f46e5"/>
  <path d="M22 8C22 6.89543 21.1046 6 20 6H16C10.4772 6 6 10.4772 6 16C6 17.1046 6.89543 18 8 18H20C21.1046 18 22 17.1046 22 16V8Z" fill="white" opacity="0.9"/>
  <circle cx="15" cy="12" r="2" fill="#4f46e5"/>
</svg>
