<svg width="16" height="16" viewBox="0 0 16 16" fill="none" xmlns="http://www.w3.org/2000/svg">
  <rect width="16" height="16" rx="4" fill="#4f46e5"/>
  <path d="M4 6C4 5.44772 4.44772 5 5 5H7C9.41828 5 13 8.58172 13 13C13 13.5523 12.5523 14 12 14H5C4.44772 14 4 13.5523 4 13V6Z" fill="white"/>
  <circle cx="6.5" cy="8" r="1" fill="#4f46e5"/>
  <path d="M12 3C12 2.44772 11.5523 2 11 2H9C4.58172 2 1 5.58172 1 11C1 11.5523 1.44772 12 2 12H11C11.5523 12 12 11.5523 12 11V3Z" fill="white" opacity="0.9"/>
  <circle cx="7.5" cy="6" r="1" fill="#4f46e5"/>
</svg>  <rect width="16" height="16" rx="4" fill="#4f46e5"/>
  <path d="M4 6C4 5.44772 4.44772 5 5 5H7C9.41828 5 13 8.58172 13 13C13 13.5523 12.5523 14 12 14H5C4.44772 14 4 13.5523 4 13V6Z" fill="white"/>
  <circle cx="6.5" cy="8" r="1" fill="#4f46e5"/>
  <path d="M12 3C12 2.44772 11.5523 2 11 2H9C4.58172 2 1 5.58172 1 11C1 11.5523 1.44772 12 2 12H11C11.5523 12 12 11.5523 12 11V3Z" fill="white" opacity="0.9"/>
  <circle cx="7.5" cy="6" r="1" fill="#4f46e5"/>
</svg>
